# xmcd CD database file
#
# Track frame offsets:
#	150
#	14394
#	27956
#	39865
#	53747
#	66314
#	80815
#	92806
#	107576
#	121841
#	136412
#	149577
#	164167
#	179190
#	192224
#	206863
#	220749
#	232888
#	246105
#
# Disc length: 3567 seconds
#
# Revision: 0
# Processed by: cddbd v1.5.2PL0 Copyright (c) Steve Scherf et al.
# Submitted via: CDex 1.70beta2
#
DISCID=1a0ded13
DTITLE=Duke Ellington - Giants of Jazz Disc 2
DYEAR=1900
DGENRE=Jazz
TTITLE0=Clarinet Lament (Barney’s Concerto): Duke Ellington and His Famous Orchestra 
TTITLE1=Echoes of Harlem (Cootie’s Concerto): Duke Ellington and His Famous Orchestra 
TTITLE2=Caravan: Duke Ellington and His Famous Orchestra
TTITLE3=I Let a Song Go Out of My Heart: Duke Ellington and His Famous Orchestra 
TTITLE4=Sophisticated Lady: Duke Ellington and His Famous Orchestra 
TTITLE5=Jack the Bear: Duke Ellington and His Famous Orchestra 
TTITLE6=Ko‑Ko: Duke Ellington and His Famous Orchestra
TTITLE7=Concerto for Cootie (Do Nothin’ Till You Hear from Me): Duke Ellington and His Famous Orchestra
TTITLE8=Cotton Tail: Duke Ellington and His Famous Orchestra
TTITLE9=Never No Lament (Don’t Get Around Much Any More): Duke Ellington and His Famous Orchestra
TTITLE10=Harlem Air Shaft: Duke Ellington and His Famous Orchestra
TTITLE11=In a Mellotone: Duke Ellington and His Famous Orchestra
TTITLE12=Warm Valley: Duke Ellington and His Famous Orchestra 
TTITLE13=Take the “A” Train: Duke Ellington and His Famous Orchestra
TTITLE14=I Got It Bad and That Ain’t Good: Duke Ellington and His Famous Orchestra
TTITLE15=Perdido: Duke Ellington and His Famous Orchestra
TTITLE16=C Jam Blues: Duke Ellington and His Famous Orchestra
TTITLE17=Rockabye River: Duke Ellington and His Orchestra 
TTITLE18=Jeep’s Blues: Duke Ellington and His Orchestra
EXTD=
EXTT0=
EXTT1=
EXTT2=
EXTT3=
EXTT4=
EXTT5=
EXTT6=
EXTT7=
EXTT8=
EXTT9=
EXTT10=
EXTT11=
EXTT12=
EXTT13=
EXTT14=
EXTT15=
EXTT16=
EXTT17=
EXTT18=
PLAYORDER=
